<svg width="48" height="48" viewBox="0 0 48 48" fill="none" xmlns="http://www.w3.org/2000/svg">
<path d="M23.958 45.125C20.581 45.125 17.833 42.377 17.833 39V38H30.083V39C30.083 42.377 27.335 45.125 23.958 45.125ZM19.955 40C20.403 41.793 22.028 43.125 23.958 43.125C25.888 43.125 27.513 41.793 27.961 40H19.955Z" fill="#3D3D3D" fill-opacity="0.7"/>
<path d="M42 40H6V39C6 22.816 12.191 8.99499 20.722 6.13599L21.357 8.03199C13.911 10.528 8.255 23.314 8.009 38H39.991C39.745 23.315 34.09 10.529 26.645 8.03299L27.282 6.13699C35.81 8.99699 42 22.818 42 39V40Z" fill="#3D3D3D" fill-opacity="0.7"/>
<path d="M27.84 8.43298L26.646 8.03298C24.867 7.43598 23.131 7.43698 21.358 8.03298L20.163 8.43398L20.034 7.07198C20.016 6.91098 20.002 6.75098 20.002 6.58398C20.002 3.82698 21.796 1.58398 24.002 1.58398C26.208 1.58398 28.002 3.82698 28.002 6.58398C28.002 6.75098 27.987 6.91198 27.97 7.07298L27.84 8.43298ZM24 5.58298C24.636 5.58298 25.279 5.64698 25.924 5.77398C25.682 4.52598 24.9 3.58298 24.001 3.58298C23.102 3.58298 22.32 4.52598 22.078 5.77398C22.722 5.64698 23.364 5.58298 24 5.58298Z" fill="#3D3D3D" fill-opacity="0.7"/>
</svg>
