<svg width="74" height="100" viewBox="0 0 74 100" fill="none" xmlns="http://www.w3.org/2000/svg">
<path d="M15.4219 25.3203L6.50781 34.2891C6.28906 34.5078 6.17969 34.7812 6.17969 35.0547C6.17969 35.3828 6.28906 35.6563 6.50781 35.8203L15.3672 44.6797C15.8047 45.1172 16.4609 45.1172 16.8984 44.6797C17.1172 44.4609 17.2266 44.1875 17.2266 43.9141C17.2266 43.6406 17.1172 43.3125 16.8984 43.1484L9.89844 36.0938H44.7344C45.3359 36.0938 45.8281 35.6016 45.8281 35C45.8281 34.3984 45.3359 33.9063 44.7344 33.9063H9.89844L16.9531 26.8516C17.1719 26.6328 17.2812 26.3594 17.2812 26.0859C17.2812 25.8125 17.1719 25.5391 16.9531 25.3203C16.5703 24.8828 15.8594 24.8828 15.4219 25.3203Z" fill="#2C3E50"/>
<path d="M51.9531 8.75H27.8906C24.8828 8.75 22.4219 11.2109 22.4219 14.2188V23.1328H24.6094V14.2188C24.6094 12.4141 26.0859 10.9375 27.8906 10.9375H51.9531C53.7578 10.9375 55.2344 12.4141 55.2344 14.2188V56.3281C55.2344 58.1328 53.7578 59.6094 51.9531 59.6094H27.8906C26.0859 59.6094 24.6094 58.1328 24.6094 56.3281V46.8672H22.4219V56.3281C22.4219 59.3359 24.8828 61.7969 27.8906 61.7969H51.9531C54.9609 61.7969 57.4219 59.3359 57.4219 56.3281V14.2188C57.4219 11.2109 54.9609 8.75 51.9531 8.75Z" fill="#5D46D5"/>
<path d="M9.28586 90.58H14.2859V92H7.46586V77.9H9.28586V90.58ZM21.1177 80.88C22.1711 80.88 23.1111 81.1067 23.9377 81.56C24.7777 82.0133 25.4311 82.6667 25.8977 83.52C26.3777 84.3733 26.6177 85.3733 26.6177 86.52C26.6177 87.6667 26.3777 88.6667 25.8977 89.52C25.4311 90.36 24.7777 91.0067 23.9377 91.46C23.1111 91.9133 22.1711 92.14 21.1177 92.14C20.0644 92.14 19.1177 91.9133 18.2777 91.46C17.4511 91.0067 16.7977 90.36 16.3177 89.52C15.8377 88.6667 15.5977 87.6667 15.5977 86.52C15.5977 85.3733 15.8377 84.3733 16.3177 83.52C16.7977 82.6667 17.4511 82.0133 18.2777 81.56C19.1177 81.1067 20.0644 80.88 21.1177 80.88ZM21.1177 82.48C20.4644 82.48 19.8577 82.6267 19.2977 82.92C18.7511 83.2133 18.3044 83.6667 17.9577 84.28C17.6244 84.88 17.4577 85.6267 17.4577 86.52C17.4577 87.4 17.6244 88.1467 17.9577 88.76C18.3044 89.36 18.7511 89.8067 19.2977 90.1C19.8577 90.3933 20.4644 90.54 21.1177 90.54C21.7711 90.54 22.3711 90.3933 22.9177 90.1C23.4777 89.8067 23.9244 89.36 24.2577 88.76C24.6044 88.1467 24.7777 87.4 24.7777 86.52C24.7777 85.6267 24.6044 84.88 24.2577 84.28C23.9244 83.6667 23.4777 83.2133 22.9177 82.92C22.3711 82.6267 21.7711 82.48 21.1177 82.48ZM33.4893 80.88C34.556 80.88 35.456 81.1467 36.1893 81.68C36.936 82.2133 37.456 82.9267 37.7493 83.82V81.02H39.5693V92.18C39.5693 93.1933 39.356 94.0933 38.9293 94.88C38.5026 95.6667 37.9026 96.28 37.1293 96.72C36.356 97.16 35.456 97.38 34.4293 97.38C32.9493 97.38 31.7426 97.02 30.8093 96.3C29.876 95.5933 29.2826 94.6333 29.0293 93.42H30.8293C31.0426 94.1533 31.4426 94.7267 32.0293 95.14C32.6293 95.5667 33.396 95.78 34.3293 95.78C35.316 95.78 36.1293 95.46 36.7693 94.82C37.4226 94.1933 37.7493 93.3133 37.7493 92.18V89.2C37.456 90.0933 36.936 90.8067 36.1893 91.34C35.456 91.8733 34.556 92.14 33.4893 92.14C32.516 92.14 31.6493 91.9133 30.8893 91.46C30.1293 91.0067 29.5293 90.36 29.0893 89.52C28.6626 88.6667 28.4493 87.6667 28.4493 86.52C28.4493 85.3733 28.6626 84.3733 29.0893 83.52C29.5293 82.6667 30.1293 82.0133 30.8893 81.56C31.6493 81.1067 32.516 80.88 33.4893 80.88ZM34.0093 82.5C32.8893 82.5 31.9893 82.86 31.3093 83.58C30.6426 84.2867 30.3093 85.2667 30.3093 86.52C30.3093 87.7733 30.6426 88.76 31.3093 89.48C31.9893 90.1867 32.8893 90.54 34.0093 90.54C34.7293 90.54 35.3693 90.3733 35.9293 90.04C36.5026 89.7067 36.9493 89.24 37.2693 88.64C37.5893 88.0267 37.7493 87.32 37.7493 86.52C37.7493 85.72 37.5893 85.0133 37.2693 84.4C36.9493 83.7867 36.5026 83.32 35.9293 83C35.3693 82.6667 34.7293 82.5 34.0093 82.5ZM47.4459 80.88C48.4992 80.88 49.4392 81.1067 50.2659 81.56C51.1059 82.0133 51.7592 82.6667 52.2259 83.52C52.7059 84.3733 52.9459 85.3733 52.9459 86.52C52.9459 87.6667 52.7059 88.6667 52.2259 89.52C51.7592 90.36 51.1059 91.0067 50.2659 91.46C49.4392 91.9133 48.4992 92.14 47.4459 92.14C46.3925 92.14 45.4459 91.9133 44.6059 91.46C43.7792 91.0067 43.1259 90.36 42.6459 89.52C42.1659 88.6667 41.9259 87.6667 41.9259 86.52C41.9259 85.3733 42.1659 84.3733 42.6459 83.52C43.1259 82.6667 43.7792 82.0133 44.6059 81.56C45.4459 81.1067 46.3925 80.88 47.4459 80.88ZM47.4459 82.48C46.7925 82.48 46.1859 82.6267 45.6259 82.92C45.0792 83.2133 44.6325 83.6667 44.2859 84.28C43.9525 84.88 43.7859 85.6267 43.7859 86.52C43.7859 87.4 43.9525 88.1467 44.2859 88.76C44.6325 89.36 45.0792 89.8067 45.6259 90.1C46.1859 90.3933 46.7925 90.54 47.4459 90.54C48.0992 90.54 48.6992 90.3933 49.2459 90.1C49.8059 89.8067 50.2525 89.36 50.5859 88.76C50.9325 88.1467 51.1059 87.4 51.1059 86.52C51.1059 85.6267 50.9325 84.88 50.5859 84.28C50.2525 83.6667 49.8059 83.2133 49.2459 82.92C48.6992 82.6267 48.0992 82.48 47.4459 82.48ZM65.0774 81.02V92H63.2574V89.42C62.9774 90.3133 62.4774 91 61.7574 91.48C61.0508 91.9467 60.2241 92.18 59.2774 92.18C58.0108 92.18 56.9841 91.7733 56.1974 90.96C55.4108 90.1333 55.0174 88.9533 55.0174 87.42V81.02H56.8374V87.24C56.8374 88.3333 57.1174 89.18 57.6774 89.78C58.2374 90.3667 58.9974 90.66 59.9574 90.66C60.9574 90.66 61.7574 90.34 62.3574 89.7C62.9574 89.0467 63.2574 88.1 63.2574 86.86V81.02H65.0774ZM73.2332 90.4V92H71.8732C70.7532 92 69.9132 91.7333 69.3532 91.2C68.8065 90.6667 68.5332 89.7733 68.5332 88.52V82.6H66.8932V81.02H68.5332V78.28H70.3732V81.02H73.2132V82.6H70.3732V88.56C70.3732 89.2667 70.4999 89.7533 70.7532 90.02C71.0199 90.2733 71.4732 90.4 72.1132 90.4H73.2332Z" fill="#3D3D3D"/>
</svg>
