<svg width="81" height="81" viewBox="0 0 81 81" fill="none" xmlns="http://www.w3.org/2000/svg">
<path fill-rule="evenodd" clip-rule="evenodd" d="M52.2452 36.1261C52.2452 26.7301 44.6312 19.1971 35.3162 19.1971C25.9202 19.1971 18.3872 26.8111 18.3872 36.1261C18.3872 45.5221 26.0012 53.0551 35.3162 53.0551C44.6312 53.1361 52.2452 45.5221 52.2452 36.1261ZM64.8002 64.2331L63.3422 65.6911L47.9522 50.3011C44.5502 53.2981 40.1762 55.1611 35.2352 55.1611C24.7052 55.1611 16.2002 46.6561 16.2002 36.1261C16.2002 25.5961 24.7052 17.0911 35.2352 17.0911C45.7652 17.0911 54.2702 25.5961 54.2702 36.1261C54.2702 40.9861 52.4072 45.4411 49.4102 48.8431L64.8002 64.2331Z" fill="#3D3D3D" fill-opacity="0.7"/>
</svg>
